<svg width="40" height="40" viewBox="0 0 60 57" fill="none" xmlns="http://www.w3.org/2000/svg">
<path d="M14.4293 41.571C14.5684 41.571 14.7043 41.5319 14.82 41.4585C14.9356 41.3851 15.0258 41.2808 15.079 41.1587C15.1322 41.0367 15.1462 40.9024 15.1191 40.7728C15.0919 40.6432 15.025 40.5242 14.9267 40.4308C13.8753 39.4321 12.9517 38.3189 12.1751 37.1144C12.0778 36.9633 11.9213 36.855 11.74 36.8135C11.5587 36.772 11.3675 36.8006 11.2084 36.893C11.0493 36.9855 10.9354 37.1342 10.8917 37.3064C10.848 37.4786 10.8781 37.6603 10.9754 37.8114C11.8098 39.1058 12.8022 40.302 13.932 41.3752C13.9972 41.4373 14.0747 41.4866 14.1601 41.5202C14.2455 41.5538 14.337 41.5711 14.4293 41.571Z" fill="black"/>
<path d="M9.98666 21.1918C9.89923 21.1636 9.8068 21.152 9.71466 21.1577C9.62252 21.1634 9.53245 21.1862 9.44962 21.225C9.36679 21.2638 9.2928 21.3177 9.23189 21.3836C9.17098 21.4495 9.12434 21.5262 9.09462 21.6093C7.81011 25.1921 7.66864 29.0557 8.68798 32.7147C8.73924 32.8819 8.85724 33.0235 9.01683 33.1093C9.17641 33.1951 9.36495 33.2183 9.54225 33.1739C9.71956 33.1295 9.8716 33.0211 9.96595 32.8717C10.0603 32.7223 10.0895 32.5439 10.0474 32.3744C9.09864 28.9692 9.23024 25.3736 10.4256 22.0392C10.4857 21.8715 10.4732 21.6881 10.3908 21.5292C10.3085 21.3702 10.1631 21.2489 9.98666 21.1918Z" fill="black"/>
<path d="M4.15537 7.42774C4.67141 7.59265 5.14023 7.86889 5.52507 8.23477C5.90991 8.60066 6.20031 9.04625 6.37349 9.53662C6.42014 9.66966 6.50967 9.78537 6.6294 9.86737C6.74913 9.94937 6.89299 9.9935 7.04058 9.9935C7.18818 9.9935 7.33204 9.94937 7.45177 9.86737C7.5715 9.78537 7.66103 9.66966 7.70767 9.53662C7.88086 9.04625 8.17125 8.60065 8.55609 8.23476C8.94093 7.86887 9.40975 7.59265 9.9258 7.42774C10.0657 7.38337 10.1875 7.29831 10.2737 7.18459C10.36 7.07088 10.4064 6.93427 10.4064 6.79411C10.4064 6.65395 10.36 6.51734 10.2737 6.40363C10.1875 6.28991 10.0657 6.20485 9.9258 6.16049C9.40976 5.99557 8.94094 5.71934 8.5561 5.35345C8.17126 4.98757 7.88086 4.54197 7.70767 4.0516C7.66103 3.91857 7.5715 3.80285 7.45177 3.72085C7.33204 3.63885 7.18818 3.59473 7.04058 3.59473C6.89299 3.59473 6.74913 3.63885 6.6294 3.72085C6.50967 3.80285 6.42014 3.91857 6.37349 4.0516C6.20028 4.54196 5.90988 4.98754 5.52504 5.35342C5.14021 5.71931 4.6714 5.99555 4.15537 6.16049C4.01542 6.20485 3.89371 6.28991 3.80746 6.40363C3.72121 6.51734 3.6748 6.65395 3.6748 6.79411C3.6748 6.93427 3.72121 7.07088 3.80746 7.18459C3.89371 7.29831 4.01542 7.38337 4.15537 7.42774ZM7.04064 5.71328C7.3552 6.12974 7.73914 6.49468 8.17736 6.79372C7.73914 7.0928 7.35519 7.45778 7.04064 7.87427C6.72602 7.45783 6.34209 7.09287 5.90392 6.79372C6.34208 6.49474 6.72602 6.12993 7.04064 5.71362V5.71328Z" fill="black"/>
<path d="M51.0645 48.8137C50.5485 48.6488 50.0797 48.3726 49.6949 48.0067C49.3101 47.6408 49.0197 47.1953 48.8465 46.7049C48.7999 46.5719 48.7104 46.4562 48.5906 46.3742C48.4709 46.2922 48.327 46.248 48.1794 46.248C48.0318 46.248 47.888 46.2922 47.7683 46.3742C47.6485 46.4562 47.559 46.5719 47.5123 46.7049C47.3392 47.1953 47.0488 47.6409 46.6639 48.0067C46.2791 48.3726 45.8103 48.6488 45.2942 48.8137C45.1542 48.858 45.0325 48.9431 44.9462 49.0568C44.8599 49.1706 44.8135 49.3072 44.8135 49.4474C44.8135 49.5876 44.8599 49.7242 44.9462 49.8379C45.0325 49.9517 45.1542 50.0367 45.2942 50.0811C45.8103 50.246 46.2791 50.5222 46.6639 50.888C47.0487 51.2539 47.3391 51.6995 47.5123 52.1898C47.559 52.3229 47.6485 52.4386 47.7683 52.5206C47.888 52.6026 48.0318 52.6467 48.1794 52.6467C48.327 52.6467 48.4709 52.6026 48.5906 52.5206C48.7104 52.4386 48.7999 52.3229 48.8465 52.1898C49.0197 51.6995 49.3101 51.2539 49.6949 50.888C50.0797 50.5221 50.5485 50.2459 51.0645 50.081C51.2045 50.0366 51.3263 49.9516 51.4126 49.8378C51.4989 49.7241 51.5453 49.5875 51.5453 49.4473C51.5453 49.3071 51.4989 49.1704 51.4126 49.0567C51.3263 48.943 51.2045 48.8579 51.0645 48.8136V48.8137ZM48.1794 50.5282C47.8648 50.1117 47.4809 49.7468 47.0427 49.4477C47.4809 49.1489 47.8648 48.7841 48.1794 48.3678C48.494 48.7841 48.878 49.1488 49.3161 49.4477C48.878 49.7467 48.4941 50.1116 48.1794 50.5278V50.5282Z" fill="black"/>
<path d="M42.0555 53.8418C41.7846 53.8417 41.5198 53.9179 41.2945 54.0608C41.0693 54.2037 40.8937 54.4068 40.7899 54.6445C40.6862 54.8822 40.659 55.1438 40.7118 55.3962C40.7646 55.6485 40.895 55.8804 41.0865 56.0624C41.2779 56.2444 41.5219 56.3683 41.7876 56.4185C42.0532 56.4688 42.3286 56.443 42.5788 56.3445C42.8291 56.2461 43.043 56.0793 43.1935 55.8654C43.3439 55.6514 43.4242 55.3999 43.4242 55.1426C43.4237 54.7978 43.2794 54.4673 43.0228 54.2235C42.7662 53.9796 42.4184 53.8424 42.0555 53.8418Z" fill="black"/>
<path d="M14.0968 3.15838C14.3676 3.15849 14.6324 3.08229 14.8577 2.93941C15.083 2.79653 15.2586 2.59339 15.3623 2.35569C15.466 2.11799 15.4932 1.85641 15.4405 1.60402C15.3877 1.35164 15.2573 1.1198 15.0658 0.937815C14.8743 0.755833 14.6303 0.631891 14.3647 0.581664C14.099 0.531437 13.8236 0.557182 13.5734 0.655643C13.3232 0.754103 13.1093 0.920856 12.9588 1.13481C12.8083 1.34876 12.728 1.60031 12.728 1.85762C12.7285 2.20238 12.8729 2.53289 13.1294 2.77672C13.386 3.02054 13.7339 3.15779 14.0968 3.15838Z" fill="black"/>
<path d="M55.1464 0.799364C55.0145 0.924631 54.9404 1.09452 54.9404 1.27167C54.9404 1.44882 55.0145 1.61872 55.1464 1.74398C56.8148 3.33019 57.679 5.48461 57.715 8.12409C57.717 8.30091 57.7916 8.47001 57.9229 8.59529C58.0543 8.72058 58.232 8.79215 58.4181 8.79473H58.4274C58.6153 8.79064 58.7939 8.71594 58.924 8.587C59.0541 8.45806 59.125 8.28539 59.1214 8.10683C59.0803 5.10665 58.0777 2.6463 56.1412 0.805265C56.0763 0.742787 55.9991 0.693071 55.9139 0.658959C55.8288 0.624846 55.7374 0.607006 55.645 0.606458C55.5527 0.60591 55.4611 0.622665 55.3755 0.655765C55.2899 0.688865 55.2121 0.737661 55.1464 0.799364Z" fill="black"/>
<path d="M57.9434 12.214C57.8538 12.1929 57.7607 12.1887 57.6694 12.2018C57.5781 12.2148 57.4904 12.2448 57.4113 12.2901C57.3322 12.3354 57.2632 12.395 57.2084 12.4656C57.1535 12.5361 57.1139 12.6163 57.0916 12.7014C56.9266 13.3333 56.7266 13.9916 56.4969 14.658C56.4654 14.742 56.4519 14.8312 56.4572 14.9202C56.4625 15.0092 56.4865 15.0963 56.5279 15.1764C56.5692 15.2565 56.627 15.3279 56.6978 15.3864C56.7686 15.4449 56.8511 15.4894 56.9403 15.5171C57.0295 15.5449 57.1237 15.5554 57.2172 15.548C57.3108 15.5407 57.4018 15.5156 57.485 15.4743C57.5682 15.4329 57.6418 15.3762 57.7016 15.3074C57.7613 15.2386 57.8059 15.1591 57.8328 15.0737C58.0731 14.3763 58.2828 13.6864 58.456 13.0231C58.5009 12.8513 58.4722 12.6695 58.3761 12.5178C58.2799 12.366 58.1243 12.2568 57.9434 12.214Z" fill="black"/>
<path d="M35.4864 5.62949C31.2308 4.37511 26.6954 4.24828 22.3694 5.2627C18.0435 6.27711 14.0912 8.39427 10.9388 11.3858C4.3028 17.6947 2.29292 26.7602 4.90597 34.7402C4.85557 34.7859 4.81257 34.8384 4.77835 34.8961C0.218232 42.5662 -0.358214 48.3641 3.11147 51.6627C4.59706 53.0749 6.578 53.7798 8.99557 53.7797C11.7475 53.7797 15.0648 52.8659 18.8575 51.042C19.5416 50.7132 20.2364 50.3572 20.9417 49.974C25.197 51.2305 29.7329 51.3579 34.0589 50.3424C38.3849 49.3269 42.3364 47.2071 45.4859 44.2124C48.6355 41.2177 50.8633 37.462 51.9285 33.3514C52.9936 29.2408 52.8556 24.9318 51.5293 20.8904C52.9646 18.4986 54.038 16.246 54.7036 14.2082C56.1816 9.68406 55.7114 6.23089 53.3068 3.94465C49.8059 0.616388 43.6469 1.20208 35.4864 5.62949ZM11.9336 12.3302C14.9294 9.48697 18.6915 7.48227 22.8074 6.53593C26.9233 5.58959 31.2339 5.73815 35.2668 6.96532C35.3192 6.98803 35.3743 7.0046 35.4308 7.01464C36.6275 7.38943 37.7893 7.85822 38.9041 8.41615C38.9425 8.43993 38.9833 8.4601 39.0259 8.47638C42.9784 10.4895 46.2328 13.5468 48.3959 17.279C47.1741 19.5109 45.5403 21.9659 43.5354 24.5363C43.2227 24.4821 42.9056 24.4547 42.5877 24.4544C41.7166 24.4547 40.8586 24.6556 40.0871 25.0399C39.3156 25.4242 38.6537 25.9804 38.158 26.6609C37.6623 27.3414 37.3477 28.1259 37.241 28.9472C37.1343 29.7685 37.2387 30.6021 37.5454 31.3767C36.6611 32.2869 35.7444 33.1954 34.8122 34.082C28.9046 39.6983 22.63 44.2821 17.138 46.9949C15.2267 45.996 13.4744 44.7443 11.9336 43.2772C2.95878 34.7452 2.95878 20.8626 11.9336 12.3302ZM40.8047 7.90092C45.2578 5.94466 48.6017 5.61368 50.0759 7.01508C51.5908 8.45522 51.1751 11.6698 49.1441 15.8347C47.0807 12.5883 44.2191 9.8658 40.8047 7.90092ZM46.3054 28.2183C46.6098 28.9719 46.6525 29.7982 46.4273 30.5765C46.202 31.3548 45.7205 32.0442 45.0533 32.5439C44.386 33.0436 43.568 33.3274 42.7188 33.3538C41.8696 33.3803 41.0338 33.1479 40.3335 32.6908C39.6333 32.2336 39.1054 31.5756 38.8269 30.813C38.5485 30.0504 38.5342 29.2232 38.7861 28.4523C39.038 27.6814 39.5429 27.0073 40.2269 26.5285C40.911 26.0498 41.7383 25.7914 42.588 25.7913C43.3936 25.7897 44.1806 26.0209 44.8446 26.4543C45.5085 26.8878 46.0179 27.5028 46.3051 28.2179L46.3054 28.2183ZM15.6184 47.7051C11.1603 49.6661 7.82147 49.9984 6.34257 48.5921C4.86729 47.1894 5.21663 44.0071 7.27772 39.77C9.337 43.0203 12.2 45.7441 15.6184 47.7051ZM18.2227 49.8501C15.4164 51.1995 12.0058 52.4496 9.00132 52.4495C7.131 52.4495 5.41772 51.9649 4.1064 50.7183C2.59046 49.2774 2.01706 47.1917 2.40237 44.5174C2.73847 42.1826 3.78741 39.4512 5.51956 36.3897C5.79433 37.0487 6.10222 37.6974 6.44323 38.3356C5.16249 40.7865 4.38296 42.9536 4.12796 44.7793C3.83382 46.8862 4.24444 48.4865 5.3487 49.5365C6.21882 50.3637 7.46651 50.7743 9.03811 50.7742C11.3159 50.7742 14.2732 49.911 17.7407 48.2034C23.3682 45.4321 29.7845 40.7523 35.8078 35.0261C36.6399 34.2357 37.4602 33.4269 38.256 32.6151C38.6067 33.0652 39.0321 33.4581 39.5157 33.7784C38.7103 34.5995 37.8842 35.4143 37.0494 36.2078C30.8403 42.1098 23.9785 47.0823 18.2227 49.8501ZM50.6379 32.7346C49.9506 35.567 48.6757 38.2409 46.8878 40.5998C45.0999 42.9586 42.8348 44.9552 40.2251 46.4727C37.6154 47.9901 34.7134 48.9981 31.6888 49.4375C28.6642 49.877 25.5778 49.7391 22.61 49.032C27.5933 46.1074 32.9485 41.996 38.0435 37.1522C38.9839 36.2581 39.9135 35.3375 40.8153 34.4105C41.7857 34.7306 42.8322 34.7806 43.8315 34.5548C44.8309 34.3289 45.7415 33.8365 46.4562 33.1356C47.1709 32.4346 47.66 31.5543 47.8658 30.5982C48.0716 29.6421 47.9857 28.65 47.618 27.7388C47.5208 27.4985 47.4043 27.2656 47.2696 27.0422C48.482 25.4863 49.5741 23.9591 50.5376 22.4766C51.422 25.8405 51.4563 29.3556 50.6377 32.7346H50.6379ZM53.3609 13.8123C52.2191 17.3071 49.8101 21.4882 46.3765 25.9415C45.9562 25.5479 45.4716 25.2216 44.9414 24.9751C46.9364 22.3853 48.5768 19.8911 49.8075 17.5892C49.8102 17.5847 49.8125 17.5799 49.815 17.5752C50.4437 16.4147 50.9915 15.2162 51.4547 13.9875C52.8047 10.3302 52.6714 7.59232 51.0703 6.07069C49.966 5.02064 48.2822 4.63099 46.0654 4.91009C44.1478 5.15201 41.8725 5.89111 39.2993 7.10526C38.6318 6.78115 37.9499 6.48746 37.2535 6.22421C40.3876 4.62253 43.1935 3.63783 45.6095 3.29349C48.5092 2.88047 50.764 3.41718 52.3121 4.88894C54.3189 6.79677 54.6716 9.79895 53.3607 13.8123H53.3609Z" fill="black"/>
</svg>
