<svg width="45" height="45" viewBox="0 0 45 45" fill="none" xmlns="http://www.w3.org/2000/svg">
<path d="M13.0081 34.6495C11.0421 34.5369 11.0791 31.4372 13.008 31.3295C18.472 31.3508 32.8837 31.3353 38.5215 31.3397C40.0635 31.3397 41.3827 30.1634 41.7295 28.4794L44.9308 12.94C45.1142 12.0503 44.9291 11.1294 44.4233 10.4137C43.9175 9.69792 43.1603 9.28165 42.3457 9.28165C40.0777 9.28165 20.826 9.18396 10.9653 9.1399L9.40226 2.63863C9.02703 1.08501 7.76223 0 6.32639 0H1.31906C0.590587 0 0 0.662024 0 1.47861C0 2.2952 0.590587 2.95723 1.31906 2.95723H6.32639C6.57358 2.95723 6.79123 3.14402 6.85551 3.40988L12.8586 28.3763C11.803 28.4193 10.8199 28.9006 10.0744 29.7485C9.29102 30.6396 8.87033 31.8192 8.88976 33.07C8.92863 35.5715 10.7761 37.6066 13.0081 37.6066H14.9315C14.6456 38.2793 14.4851 39.0313 14.4851 39.8247C14.4851 42.6784 16.5562 45 19.102 45C21.6478 45 23.7189 42.6784 23.7189 39.8247C23.7189 39.0312 23.5583 38.2793 23.2724 37.6066H31.6015C31.3159 38.2791 31.1554 39.0307 31.1554 39.8239C31.1554 42.6776 33.2266 44.9992 35.7723 44.9992C38.3181 44.9992 40.3893 42.6775 40.3893 39.8239C40.3893 38.9999 40.2157 38.2208 39.9088 37.5286C40.4308 37.3315 40.8072 36.7796 40.8072 36.1281C40.8072 35.3115 40.2166 34.6495 39.4881 34.6495H13.0081ZM21.0807 39.8248C21.0807 41.0479 20.1931 42.0429 19.1019 42.0429C18.0108 42.0429 17.1232 41.0479 17.1232 39.8248C17.1232 38.6023 18.0099 37.6077 19.1003 37.6067H19.1036C20.1939 37.6077 21.0807 38.6023 21.0807 39.8248ZM35.7724 42.0421C34.6814 42.0421 33.7936 41.047 33.7936 39.824C33.7936 38.613 34.664 37.6262 35.7403 37.6067H35.8046C36.8809 37.6262 37.7513 38.613 37.7513 39.824C37.7512 41.047 36.8635 42.0421 35.7724 42.0421ZM42.3554 12.2497C42.3632 12.2608 42.3621 12.266 42.3604 12.2745L41.0115 18.8222H36.4439L37.2217 12.2155L42.3352 12.2386C42.343 12.2388 42.3476 12.2388 42.3554 12.2497ZM28.7563 28.3824V21.7795H33.4348L32.6574 28.3824H28.7563ZM22.2154 28.3824L21.4317 21.7795H26.1182V28.3824H22.2154ZM16.143 28.3824H16.1389C15.8174 28.3823 15.5341 28.1392 15.4505 27.7929L14.0046 21.7795H18.7702L19.5539 28.3824H16.143ZM21.0806 18.8223L20.2873 12.1391L26.1181 12.1654V18.8223H21.0806ZM28.7563 18.8223V12.1774L34.5621 12.2036L33.7829 18.8223H28.7563ZM17.6245 12.127L18.4192 18.8222H13.2936L11.6773 12.1001L17.6245 12.127ZM38.5215 28.3824H35.3183L36.0956 21.7795H40.4022L39.159 27.8139C39.0901 28.1486 38.8279 28.3824 38.5215 28.3824Z" fill="black"/>
</svg>
